<svg xmlns="http://www.w3.org/2000/svg" xmlns:xlink="http://www.w3.org/1999/xlink" width="1920" zoomAndPan="magnify" viewBox="0 0 1440 809.999993" height="1080" preserveAspectRatio="xMidYMid meet" version="1.0"><defs><g/></defs><g fill="#ffffff" fill-opacity="1"><g transform="translate(262.976537, 643.026002)"><g><path d="M 375.140625 -181.984375 C 375.140625 -121.898438 360.238281 -75.71875 330.4375 -43.4375 C 300.644531 -11.164062 257.945312 4.96875 202.34375 4.96875 C 146.726562 4.96875 104.023438 -11.164062 74.234375 -43.4375 C 44.441406 -75.71875 29.546875 -122.066406 29.546875 -182.484375 C 29.546875 -242.890625 44.484375 -289.019531 74.359375 -320.875 C 104.234375 -352.738281 147.054688 -368.671875 202.828125 -368.671875 C 258.609375 -368.671875 301.269531 -352.613281 330.8125 -320.5 C 360.363281 -288.394531 375.140625 -242.222656 375.140625 -181.984375 Z M 110.234375 -181.984375 C 110.234375 -141.429688 117.925781 -110.890625 133.3125 -90.359375 C 148.707031 -69.835938 171.71875 -59.578125 202.34375 -59.578125 C 263.75 -59.578125 294.453125 -100.378906 294.453125 -181.984375 C 294.453125 -263.742188 263.910156 -304.625 202.828125 -304.625 C 172.210938 -304.625 149.125 -294.320312 133.5625 -273.71875 C 118.007812 -253.113281 110.234375 -222.535156 110.234375 -181.984375 Z M 110.234375 -181.984375 "/></g></g></g><g fill="#ffffff" fill-opacity="1"><g transform="translate(585.79352, 643.026002)"><g><path d="M 367.6875 0 L 269.875 0 L 111.96875 -274.578125 L 109.734375 -274.578125 C 112.878906 -226.085938 114.453125 -191.5 114.453125 -170.8125 L 114.453125 0 L 45.6875 0 L 45.6875 -362.96875 L 142.75 -362.96875 L 300.40625 -91.109375 L 302.140625 -91.109375 C 299.660156 -138.285156 298.421875 -171.640625 298.421875 -191.171875 L 298.421875 -362.96875 L 367.6875 -362.96875 Z M 367.6875 0 "/></g></g></g><g fill="#ffffff" fill-opacity="1"><g transform="translate(917.299912, 643.026002)"><g><path d="M 254.71875 0 L 45.6875 0 L 45.6875 -362.96875 L 254.71875 -362.96875 L 254.71875 -299.90625 L 122.640625 -299.90625 L 122.640625 -220.21875 L 245.53125 -220.21875 L 245.53125 -157.15625 L 122.640625 -157.15625 L 122.640625 -63.5625 L 254.71875 -63.5625 Z M 254.71875 0 "/></g></g></g><g fill="#ffffff" fill-opacity="1"><g transform="translate(290.699963, 240.009046)"><g><path d="M 85.734375 -32.5 C 85.734375 -21.75 81.832031 -13.363281 74.03125 -7.34375 C 66.238281 -1.332031 55.65625 1.671875 42.28125 1.671875 C 27.800781 1.671875 16.660156 -0.191406 8.859375 -3.921875 L 8.859375 -17.625 C 13.867188 -15.507812 19.328125 -13.835938 25.234375 -12.609375 C 31.140625 -11.390625 36.988281 -10.78125 42.78125 -10.78125 C 52.25 -10.78125 59.378906 -12.578125 64.171875 -16.171875 C 68.960938 -19.765625 71.359375 -24.765625 71.359375 -31.171875 C 71.359375 -35.398438 70.507812 -38.863281 68.8125 -41.5625 C 67.113281 -44.269531 64.269531 -46.765625 60.28125 -49.046875 C 56.300781 -51.335938 50.242188 -53.929688 42.109375 -56.828125 C 30.742188 -60.890625 22.625 -65.707031 17.75 -71.28125 C 12.882812 -76.851562 10.453125 -84.125 10.453125 -93.09375 C 10.453125 -102.507812 13.988281 -110 21.0625 -115.5625 C 28.132812 -121.132812 37.492188 -123.921875 49.140625 -123.921875 C 61.285156 -123.921875 72.453125 -121.691406 82.640625 -117.234375 L 78.21875 -104.875 C 68.132812 -109.101562 58.328125 -111.21875 48.796875 -111.21875 C 41.273438 -111.21875 35.394531 -109.601562 31.15625 -106.375 C 26.925781 -103.144531 24.8125 -98.660156 24.8125 -92.921875 C 24.8125 -88.691406 25.59375 -85.222656 27.15625 -82.515625 C 28.71875 -79.816406 31.347656 -77.335938 35.046875 -75.078125 C 38.753906 -72.828125 44.425781 -70.335938 52.0625 -67.609375 C 64.875 -63.035156 73.6875 -58.128906 78.5 -52.890625 C 83.320312 -47.660156 85.734375 -40.863281 85.734375 -32.5 Z M 85.734375 -32.5 "/></g></g></g><g fill="#ffffff" fill-opacity="1"><g transform="translate(394.382216, 240.009046)"><g><path d="M 44.296875 -9.78125 C 46.742188 -9.78125 49.109375 -9.957031 51.390625 -10.3125 C 53.671875 -10.675781 55.484375 -11.054688 56.828125 -11.453125 L 56.828125 -0.828125 C 55.316406 -0.109375 53.097656 0.484375 50.171875 0.953125 C 47.253906 1.429688 44.625 1.671875 42.28125 1.671875 C 24.5625 1.671875 15.703125 -7.660156 15.703125 -26.328125 L 15.703125 -80.8125 L 2.59375 -80.8125 L 2.59375 -87.5 L 15.703125 -93.265625 L 21.5625 -112.8125 L 29.578125 -112.8125 L 29.578125 -91.59375 L 56.15625 -91.59375 L 56.15625 -80.8125 L 29.578125 -80.8125 L 29.578125 -26.90625 C 29.578125 -21.394531 30.882812 -17.160156 33.5 -14.203125 C 36.125 -11.253906 39.722656 -9.78125 44.296875 -9.78125 Z M 44.296875 -9.78125 "/></g></g></g><g fill="#ffffff" fill-opacity="1"><g transform="translate(464.555003, 240.009046)"><g><path d="M 71.03125 0 L 68.265625 -13.03125 L 67.609375 -13.03125 C 63.035156 -7.289062 58.476562 -3.40625 53.9375 -1.375 C 49.394531 0.65625 43.726562 1.671875 36.9375 1.671875 C 27.851562 1.671875 20.734375 -0.664062 15.578125 -5.34375 C 10.429688 -10.03125 7.859375 -16.6875 7.859375 -25.3125 C 7.859375 -43.8125 22.648438 -53.507812 52.234375 -54.40625 L 67.765625 -54.90625 L 67.765625 -60.578125 C 67.765625 -67.765625 66.21875 -73.070312 63.125 -76.5 C 60.039062 -79.925781 55.097656 -81.640625 48.296875 -81.640625 C 40.671875 -81.640625 32.035156 -79.300781 22.390625 -74.625 L 18.140625 -85.234375 C 22.648438 -87.679688 27.59375 -89.601562 32.96875 -91 C 38.34375 -92.394531 43.734375 -93.09375 49.140625 -93.09375 C 60.054688 -93.09375 68.144531 -90.664062 73.40625 -85.8125 C 78.675781 -80.96875 81.3125 -73.195312 81.3125 -62.5 L 81.3125 0 Z M 39.6875 -9.78125 C 48.320312 -9.78125 55.101562 -12.144531 60.03125 -16.875 C 64.96875 -21.613281 67.4375 -28.242188 67.4375 -36.765625 L 67.4375 -45.046875 L 53.5625 -44.453125 C 42.53125 -44.066406 34.578125 -42.351562 29.703125 -39.3125 C 24.828125 -36.28125 22.390625 -31.5625 22.390625 -25.15625 C 22.390625 -20.132812 23.90625 -16.316406 26.9375 -13.703125 C 29.976562 -11.085938 34.226562 -9.78125 39.6875 -9.78125 Z M 39.6875 -9.78125 "/></g></g></g><g fill="#ffffff" fill-opacity="1"><g transform="translate(569.490728, 240.009046)"><g><path d="M 89.671875 -91.59375 L 89.671875 -82.8125 L 72.703125 -80.8125 C 74.265625 -78.851562 75.65625 -76.300781 76.875 -73.15625 C 78.101562 -70.007812 78.71875 -66.457031 78.71875 -62.5 C 78.71875 -53.53125 75.648438 -46.375 69.515625 -41.03125 C 63.390625 -35.6875 54.984375 -33.015625 44.296875 -33.015625 C 41.554688 -33.015625 38.988281 -33.234375 36.59375 -33.671875 C 30.695312 -30.554688 27.75 -26.628906 27.75 -21.890625 C 27.75 -19.390625 28.773438 -17.539062 30.828125 -16.34375 C 32.890625 -15.144531 36.429688 -14.546875 41.453125 -14.546875 L 57.65625 -14.546875 C 67.570312 -14.546875 75.191406 -12.453125 80.515625 -8.265625 C 85.835938 -4.085938 88.5 1.976562 88.5 9.9375 C 88.5 20.082031 84.429688 27.8125 76.296875 33.125 C 68.160156 38.445312 56.296875 41.109375 40.703125 41.109375 C 28.722656 41.109375 19.488281 38.878906 13 34.421875 C 6.507812 29.972656 3.265625 23.679688 3.265625 15.546875 C 3.265625 9.972656 5.046875 5.148438 8.609375 1.078125 C 12.171875 -2.984375 17.1875 -5.738281 23.65625 -7.1875 C 21.3125 -8.25 19.34375 -9.890625 17.75 -12.109375 C 16.164062 -14.335938 15.375 -16.929688 15.375 -19.890625 C 15.375 -23.234375 16.265625 -26.15625 18.046875 -28.65625 C 19.828125 -31.164062 22.640625 -33.59375 26.484375 -35.9375 C 21.753906 -37.882812 17.898438 -41.195312 14.921875 -45.875 C 11.941406 -50.550781 10.453125 -55.898438 10.453125 -61.921875 C 10.453125 -71.953125 13.457031 -79.679688 19.46875 -85.109375 C 25.488281 -90.546875 34.015625 -93.265625 45.046875 -93.265625 C 49.835938 -93.265625 54.15625 -92.707031 58 -91.59375 Z M 16.625 15.375 C 16.625 20.332031 18.710938 24.09375 22.890625 26.65625 C 27.078125 29.21875 33.066406 30.5 40.859375 30.5 C 52.503906 30.5 61.125 28.757812 66.71875 25.28125 C 72.320312 21.800781 75.125 17.078125 75.125 11.109375 C 75.125 6.148438 73.59375 2.707031 70.53125 0.78125 C 67.46875 -1.132812 61.703125 -2.09375 53.234375 -2.09375 L 36.59375 -2.09375 C 30.300781 -2.09375 25.398438 -0.585938 21.890625 2.421875 C 18.378906 5.429688 16.625 9.75 16.625 15.375 Z M 24.15625 -62.25 C 24.15625 -55.84375 25.960938 -50.992188 29.578125 -47.703125 C 33.203125 -44.421875 38.242188 -42.78125 44.703125 -42.78125 C 58.242188 -42.78125 65.015625 -49.351562 65.015625 -62.5 C 65.015625 -76.257812 58.160156 -83.140625 44.453125 -83.140625 C 37.929688 -83.140625 32.914062 -81.382812 29.40625 -77.875 C 25.90625 -74.375 24.15625 -69.164062 24.15625 -62.25 Z M 24.15625 -62.25 "/></g></g></g><g fill="#ffffff" fill-opacity="1"><g transform="translate(673.005852, 240.009046)"><g><path d="M 28.578125 0 L 14.703125 0 L 14.703125 -91.59375 L 28.578125 -91.59375 Z M 13.53125 -116.40625 C 13.53125 -119.582031 14.3125 -121.90625 15.875 -123.375 C 17.4375 -124.851562 19.390625 -125.59375 21.734375 -125.59375 C 23.953125 -125.59375 25.867188 -124.835938 27.484375 -123.328125 C 29.109375 -121.828125 29.921875 -119.519531 29.921875 -116.40625 C 29.921875 -113.28125 29.109375 -110.953125 27.484375 -109.421875 C 25.867188 -107.890625 23.953125 -107.125 21.734375 -107.125 C 19.390625 -107.125 17.4375 -107.890625 15.875 -109.421875 C 14.3125 -110.953125 13.53125 -113.28125 13.53125 -116.40625 Z M 13.53125 -116.40625 "/></g></g></g></svg>